<svg version="1.1" id="Layer_1" xmlns="http://www.w3.org/2000/svg" xmlns:xlink="http://www.w3.org/1999/xlink" x="0px" y="0px"
	 width="401px" height="401px" viewBox="0 0 401 401" enable-background="new 0 0 401 401" xml:space="preserve">
<pattern  x="-1365.082" y="-342" width="400" height="400" patternUnits="userSpaceOnUse" id="geopattern-1" viewBox="0 -400 400 400" overflow="visible">
	<g>
		<polygon fill="none" points="0,-400 400,-400 400,0 0,0 		"/>
		<polygon fill="none" stroke="#FFFFFF" stroke-width="4" stroke-miterlimit="10" points="104.167,-250.043 99.061,-265.762
			112.432,-275.477 125.803,-265.762 120.696,-250.043 		"/>
		<polygon fill="none" stroke="#FFFFFF" stroke-width="4" stroke-miterlimit="10" points="297.771,-119.477 292.665,-135.195
			306.036,-144.91 319.407,-135.195 314.301,-119.477 		"/>
		<polygon fill="none" stroke="#FFFFFF" stroke-width="4" stroke-miterlimit="10" points="176.748,-342.981 172.203,-350.854
			176.748,-358.727 185.839,-358.727 190.385,-350.854 185.839,-342.981 		"/>

			<line fill="none" stroke="#FFFFFF" stroke-width="4" stroke-miterlimit="10" x1="101.044" y1="-381.727" x2="117.294" y2="-373.227"/>
		<path fill="none" stroke="#FFFFFF" stroke-miterlimit="10" d="M54.294-344.534c0,1.519-1.231,2.75-2.75,2.75
			s-2.75-1.231-2.75-2.75s1.231-2.75,2.75-2.75S54.294-346.053,54.294-344.534z"/>
		<path fill="none" stroke="#FFFFFF" stroke-miterlimit="10" d="M218.068-223.05c0,1.519-1.231,2.75-2.75,2.75
			s-2.75-1.231-2.75-2.75s1.231-2.75,2.75-2.75S218.068-224.568,218.068-223.05z"/>
		<path fill="none" stroke="#FFFFFF" stroke-miterlimit="10" d="M273.459-73.227c0,1.519-1.231,2.75-2.75,2.75
			s-2.75-1.231-2.75-2.75s1.231-2.75,2.75-2.75S273.459-74.745,273.459-73.227z"/>
		<path fill="none" stroke="#FFFFFF" stroke-miterlimit="10" d="M104.561-37.727c0,1.519-1.231,2.75-2.75,2.75
			s-2.75-1.231-2.75-2.75s1.231-2.75,2.75-2.75S104.561-39.245,104.561-37.727z"/>
		<path fill="none" stroke="#FFFFFF" stroke-miterlimit="10" d="M270.709-286.477c0,1.519-1.231,2.75-2.75,2.75
			s-2.75-1.231-2.75-2.75s1.231-2.75,2.75-2.75S270.709-287.995,270.709-286.477z"/>
		<path fill="none" stroke="#FFFFFF" stroke-miterlimit="10" d="M359.294-194.727c0,1.519-1.231,2.75-2.75,2.75
			s-2.75-1.231-2.75-2.75s1.231-2.75,2.75-2.75S359.294-196.245,359.294-194.727z"/>
		<path fill="none" stroke="#FFFFFF" stroke-width="4" stroke-miterlimit="10" d="M23.095-262.263
			c4.236-6.642,2.289-15.441-4.352-19.678"/>
		<path fill="none" stroke="#FFFFFF" stroke-width="4" stroke-miterlimit="10" d="M267.959-201.698
			c-13.426-1.277-25.32,8.554-26.598,21.979"/>
		<path fill="none" stroke="#FFFFFF" stroke-width="4" stroke-miterlimit="10" d="M212.932-18.008
			c-8.377-10.569-23.706-12.339-34.275-3.962"/>
		<polygon fill="none" stroke="#FFFFFF" stroke-width="4" stroke-miterlimit="10" points="284.58,-374.73 292.665,-369.886
			285.763,-367.534 278.859,-365.183 277.677,-372.378 276.494,-379.574 		"/>
		<polygon fill="none" stroke="#FFFFFF" stroke-width="4" stroke-miterlimit="10" points="116.584,-183.513 122.245,-181.079 
			117.979,-178.954 113.711,-176.827 112.317,-181.386 110.923,-185.945 		"/>
		<polygon fill="none" stroke="#FFFFFF" stroke-width="4" stroke-miterlimit="10" points="30.578,-35.862 36.809,-27.35
			28.671,-27.928 20.526,-28.503 22.437,-36.438 24.347,-44.374 		"/>
		<path fill="none" stroke="#FFFFFF" stroke-width="4" stroke-miterlimit="10" d="M380.794-369.477c0,5.938-4.812,10.75-10.75,10.75
			s-10.75-4.812-10.75-10.75s4.812-10.75,10.75-10.75S380.794-375.414,380.794-369.477z"/>
		<path fill="none" stroke="#FFFFFF" stroke-width="4" stroke-miterlimit="10" d="M196.237-119.45c0,5.938-4.812,10.75-10.75,10.75
			s-10.75-4.812-10.75-10.75s4.812-10.75,10.75-10.75S196.237-125.388,196.237-119.45z"/>
		<polygon fill="none" stroke="#FFFFFF" stroke-width="4" stroke-miterlimit="10" points="340.795,-264.894 325.795,-264.894
			325.795,-279.894 340.795,-279.894 		"/>

			<line fill="none" stroke="#FFFFFF" stroke-width="4" stroke-miterlimit="10" x1="43.794" y1="-197.477" x2="36.794" y2="-174.727"/>
		<polyline fill="none" stroke="#FFFFFF" stroke-width="4" stroke-miterlimit="10" points="368.388,-48.227 355.591,-48.227
			355.591,-35.429 342.794,-35.429 342.794,-22.632 		"/>
		<polyline fill="none" stroke="#FFFFFF" stroke-width="4" stroke-miterlimit="10" points="79.585,-101.41 83.061,-106.954
			77.517,-110.43 80.991,-115.974 75.447,-119.45 		"/>
		<polyline fill="none" stroke="#FFFFFF" stroke-width="4" stroke-miterlimit="10" points="199.625,-265.687 203.101,-271.23
			197.557,-274.706 201.031,-280.25 195.487,-283.727 		"/>
	</g>
</pattern>
<rect x="-242.082" y="-385" fill="#FFFFFF" stroke="#000000" stroke-miterlimit="10" width="2" height="0"/>
<rect x="0.5" y="0.5" opacity="0.25" fill="url(#geopattern-1)" width="400" height="400"/>
</svg>
